<?xml version="1.0" encoding="UTF-8" standalone="no"?>
<svg fill="#164794" width="666px" height="167px" viewBox="0 0 666 167" version="1.1" xmlns="http://www.w3.org/2000/svg" xmlns:xlink="http://www.w3.org/1999/xlink">
    <title>Percipio-logo</title>
    <defs></defs>
    <g id="Page-1" stroke="none" stroke-width="1" fill-rule="evenodd">
        <g id="Percipio-logo">
            <path d="M113.4,97.4 C113.4,105.1 115.8,111.3 120.5,116.2 C125.2,121.1 131,123.5 137.7,123.5 C144.5,123.5 150.4,121.1 155.4,116.2 C160.4,111.4 162.9,105.1 162.9,97.4 C162.9,89.7 160.4,83.3 155.5,78.2 C150.6,73.1 144.7,70.6 137.8,70.6 C130.9,70.6 125.1,73.2 120.4,78.3 C115.8,83.4 113.4,89.8 113.4,97.4 M140.3,55.8 C151.3,55.8 160.7,59.5 168.5,66.9 C176.3,74.3 180.2,84.3 180.3,96.6 C180.3,109 176.5,119.1 168.7,126.8 C161,134.6 151.9,138.5 141.6,138.5 C131.3,138.5 122,134.1 113.8,125.3 L113.9,163.3 C113.9,165.2 112.4,166.7 110.4,166.7 L100.1,166.7 C98.2,166.7 96.6,165.2 96.6,163.3 L96.4,60.5 C96.4,58.6 97.9,57.1 99.9,57.1 L110.2,57.1 C112.1,57.1 113.7,58.6 113.7,60.5 L113.7,71.2 C120.5,60.9 129.3,55.8 140.3,55.8" id="Fill-108"></path>
            <path d="M205.5,91.2 L252.4,91.1 C252.4,84.4 250.2,79.2 245.9,75.5 C241.6,71.9 236.3,70.1 230,70.1 C223.7,70.1 218,72 213,75.8 C208,79.6 205.5,84.8 205.5,91.2 L205.5,91.2 Z M269.7,104.4 L205.5,104.5 C205.9,110.3 208.6,115 213.7,118.6 C218.7,122.2 224.5,123.9 230.9,123.9 C239.8,123.9 246.8,121.5 251.9,116.8 C253.3,115.5 255.4,115.7 256.7,117 L261.8,122.4 C263.1,123.8 263,126 261.5,127.3 C253.1,134.7 242.5,138.3 229.7,138.4 C218.2,138.4 208.4,134.7 200.4,127.2 C192.3,119.7 188.3,109.6 188.3,97 C188.3,84.4 192.4,74.3 200.6,66.8 C208.8,59.3 218.5,55.6 229.6,55.6 C240.7,55.6 250.2,58.9 258,65.4 C265.8,72 269.7,81.1 269.7,92.7 L269.7,104.4 Z" id="Fill-109"></path>
            <path d="M321.6,72.6 C312.6,72.4 305.9,75.1 301.5,80.8 C297.2,86.2 295.1,93.6 295.1,102.7 L295.2,133.8 C295.2,135.7 293.7,137.2 291.7,137.2 L281.4,137.2 C279.5,137.2 277.9,135.7 277.9,133.8 L277.8,60.2 C277.8,58.3 279.3,56.8 281.3,56.8 L291.6,56.8 C293.5,56.8 295.1,58.3 295.1,60.2 L295.1,73 C297.9,68 301.6,63.8 306.4,60.6 C311.2,57.4 316.2,55.7 321.5,55.6 L321.6,72.6 C321.6,72.5 321.6,72.6 321.6,72.6" id="Fill-110"></path>
            <path d="M366.2,138.2 C354.8,138.2 345,134.4 336.8,126.8 C328.6,119.2 324.5,109.3 324.4,97 C324.3,84.7 328.6,74.7 337.2,67 C345.7,59.3 356.2,55.4 368.5,55.4 C379.7,55.4 389.3,58.8 397.4,65.7 C398.8,66.9 398.9,69 397.7,70.3 L391.8,77.5 C390.6,78.9 388.5,79.1 387,78 C380.8,73.4 374.5,71.1 368.3,71.1 C361.1,71.1 354.9,73.5 349.6,78.2 C344.3,82.9 341.7,88.9 341.7,96.3 C341.7,103.7 344.3,110 349.6,115.1 C354.8,120.2 361.3,122.8 368.9,122.8 C375.6,122.8 382.1,120.1 388.1,114.7 C389.5,113.5 391.6,113.7 392.9,115 L398.4,120.8 C399.7,122.2 399.6,124.3 398.2,125.6 C388.8,134 378.1,138.2 366.2,138.2" id="Fill-111"></path>
            <path d="M427,136.6 L416.7,136.6 C414.8,136.6 413.2,135.1 413.2,133.2 L413,56.2 L430.2,56.2 L430.4,133.2 C430.4,135.1 428.9,136.6 427,136.6 M414.1,40.2 C411.9,38.1 410.9,35.6 410.9,32.7 C410.9,29.8 412,27.3 414.1,25.1 C416.2,23 418.8,21.9 421.8,21.9 C424.8,21.9 427.3,22.9 429.5,25.1 C431.7,27.2 432.7,29.7 432.7,32.7 C432.7,35.6 431.6,38.1 429.5,40.3 C427.3,42.4 424.8,43.5 421.8,43.5 C418.8,43.4 416.2,42.3 414.1,40.2" id="Fill-112"></path>
            <path d="M461.8,96.8 C461.8,104.5 464.2,110.7 468.9,115.6 C473.6,120.5 479.4,122.9 486.1,122.9 C492.9,122.9 498.8,120.5 503.8,115.6 C508.8,110.8 511.3,104.5 511.3,96.8 C511.3,89.1 508.8,82.7 503.9,77.6 C499,72.5 493.1,70 486.2,70 C479.3,70 473.5,72.6 468.8,77.7 C464.1,82.7 461.8,89.1 461.8,96.8 M488.6,55.2 C499.6,55.2 509,58.9 516.8,66.3 C524.6,73.7 528.5,83.7 528.6,96 C528.6,108.4 524.8,118.5 517,126.2 C509.3,134 500.2,137.9 489.9,137.9 C479.6,137.9 470.3,133.5 462.1,124.7 L462.2,162.7 C462.2,164.6 460.7,166.1 458.7,166.1 L448.4,166.1 C446.5,166.1 444.9,164.6 444.9,162.7 L444.7,59.8 C444.7,57.9 446.2,56.4 448.2,56.4 L458.5,56.4 C460.4,56.4 462,57.9 462,59.8 L462,70.5 C468.8,60.3 477.7,55.2 488.6,55.2" id="Fill-113"></path>
            <path d="M553,136.6 L542.7,136.6 C540.8,136.6 539.2,135.1 539.2,133.2 L539,56.2 L556.2,56.2 L556.4,133.2 C556.5,135.1 554.9,136.6 553,136.6 M540.1,40.2 C537.9,38.1 536.9,35.6 536.9,32.7 C536.9,29.8 538,27.3 540.1,25.1 C542.2,23 544.8,21.9 547.8,21.9 C550.8,21.9 553.3,22.9 555.5,25.1 C557.7,27.2 558.7,29.7 558.7,32.7 C558.7,35.6 557.6,38.1 555.5,40.3 C553.3,42.4 550.8,43.5 547.8,43.5 C544.8,43.4 542.3,42.4 540.1,40.2" id="Fill-114"></path>
            <path d="M591.4,115.3 C596.3,120.2 602.5,122.6 610,122.6 C617.5,122.6 623.7,120.1 628.5,115.2 C633.4,110.3 635.8,104 635.8,96.2 C635.8,88.4 633.3,82.1 628.5,77.3 C623.6,72.4 617.4,70 609.9,70 C602.4,70 596.2,72.5 591.4,77.4 C586.5,82.3 584.1,88.6 584.1,96.4 C584.1,104.1 586.5,110.5 591.4,115.3 M640.7,125.7 C632.5,133.7 622.3,137.7 609.9,137.8 C597.6,137.8 587.3,133.8 579.1,125.8 C570.9,117.8 566.8,108 566.7,96.4 C566.7,84.8 570.8,75 579,67 C587.2,59 597.4,54.9 609.8,54.9 C622.1,54.9 632.4,58.9 640.6,66.9 C648.8,74.9 652.9,84.7 653,96.3 C653,107.8 648.9,117.6 640.7,125.7" id="Fill-115"></path>
            <path d="M95.1,2.3 C97.1,0.3 100.2,0.3 102.2,2.3 L115.6,15.7 C117.6,17.7 117.6,20.8 115.6,22.8 L101.5,36.9 C99.5,38.9 96.4,38.9 94.4,36.9 L81,23.5 C79,21.5 79,18.4 81,16.4 L95.1,2.3 Z M38.3,6.5 C42.2,2.6 48.5,2.6 52.4,6.5 L86.9,41 C90.8,44.9 90.8,51.2 86.9,55.1 L52.3,89.7 C48.4,93.6 42.1,93.6 38.2,89.7 L3.7,55.2 C-0.2,51.3 -0.2,45 3.7,41.1 L38.3,6.5 Z M41.4,17.4 C43.4,15.4 46.5,15.4 48.5,17.4 L61.2,30.1 C63.2,32.1 63.2,35.2 61.2,37.2 L48.5,49.9 C46.5,51.9 43.4,51.9 41.4,49.9 L28.7,37.2 C26.7,35.2 26.7,32.1 28.7,30.1 L41.4,17.4 Z" id="Combined-Shape"></path>
            <path d="M648,125.7 L654.6,125.7 L654.6,127.2 L652.2,127.2 L652.2,133.7 L650.4,133.7 L650.4,127.2 L648,127.2 L648,125.7 Z M665.1,125.7 L665.1,133.7 L663.5,133.7 L663.5,129 L663.6,127.9 L661.2,132.3 C661.1,132.4 661,132.5 660.9,132.6 C660.8,132.7 660.7,132.7 660.5,132.7 L660.2,132.7 C659.9,132.7 659.7,132.6 659.6,132.3 L657.2,127.9 L657.3,129 L657.3,133.7 L655.7,133.7 L655.7,125.7 L657.3,125.7 L657.7,125.7 C657.8,125.7 657.9,125.8 658,125.9 L660.1,129.8 C660.2,130 660.3,130.3 660.4,130.6 C660.4,130.5 660.5,130.3 660.5,130.2 C660.5,130.1 660.6,129.9 660.7,129.8 L662.9,125.9 C663,125.8 663.1,125.7 663.2,125.7 L663.5,125.7 L665.1,125.7 L665.1,125.7 Z" id="Shape"></path>
        </g>
    </g>
</svg>